mtllib testmap_1.mtl
# vertices
v -432 -16 -112
v -432 -16 400
v -432 16 400
v -432 16 -112
v 144 16 400
v 144 -16 400
v 144 -16 -112
v 144 16 -112
v -80 16 -112
v -80 16 -64
v -64 96 -32
v -64 96 -112
v 32 96 -32
v 64 16 -64
v 64 16 -112
v 32 96 -112
v -128 16 272
v -128 16 384
v -128 96 384
v -128 64 272
v 48 96 384
v 48 16 384
v 48 16 272
v 48 64 272
v -400 16 -112
v -400 16 -32
v -400 144 -32
v -400 144 -112
v -336 144 -32
v -336 16 -32
v -336 16 -112
v -336 144 -112
v -416 128 320
v -416 128 400
v -416 144 400
v -416 144 320
v -272 144 400
v -272 128 400
v -272 128 320
v -272 144 320
v -288 16 160
v -288 16 240
v -288 64 240
v -288 80 160
v -208 64 240
v -208 16 240
v -208 80 160
v -208 16 160
v -112 16 16
v -112 16 96
v -112 48 96
v -112 48 16
v -48 48 96
v -48 16 96
v -48 16 16
v -48 48 16
v -208 120 -112
v -208 96 -112
v -208 96 -32
v -208 120 -32
v -64 96 -32
v -64 96 -112
v -224 122.66666666666424 -112
v -224 16 -112
v -224 16 -32
v -224 122.66666666666667 -32
v -208 120 -32
v -208 16 -32
v -208 16 -112
v -208 120 -112
v -272 16 400
v -272 16 432
v -272 320 432
v -272 320 400
v 272 320 432
v 272 16 432
v 272 16 400
v 272 320 400
v -528 -16 432
v -528 -16 1072
v -528 16 1072
v -528 16 432
v 272 16 1072
v 272 -16 1072
v 272 -16 432
v 272 16 432
v -416 16 400
v -416 16 432
v -416 160 432
v -416 160 400
v -272 160 432
v -272 16 432
v -272 16 400
v -272 160 400
v -528 0 400
v -528 0 432
v -528 320 432
v -528 320 400
v -416 320 432
v -416 0 432
v -416 0 400
v -416 320 400
v -464 16 -112
v -464 16 400
v -464 320 400
v -464 320 -112
v -432 320 400
v -432 16 400
v -432 16 -112
v -432 320 -112
v 144 16 -112
v 144 16 400
v 144 320 400
v 144 320 -112
v 176 320 400
v 176 16 400
v 176 16 -112
v 176 320 -112
v -432 16 -144
v -432 16 -112
v -432 320 -112
v -432 320 -144
v 144 320 -112
v 144 16 -112
v 144 16 -144
v 144 320 -144
v -400 128 -32
v -400 128 48
v -400 144 48
v -400 144 -32
v -336 144 48
v -336 128 48
v -336 128 -32
v -336 144 -32
v -560 16 416
v -560 16 1072
v -560 240 1072
v -560 240 416
v -528 240 1072
v -528 16 1072
v -528 16 416
v -528 240 416
v -432 16 432
v -432 16 544
v -432 96 544
v -432 96 432
v -256 96 544
v -256 16 544
v -256 16 432
v -256 96 432
v -528 16 1072
v -528 16 1104
v -528 240 1104
v -528 240 1072
v 272 240 1104
v 272 16 1104
v 272 16 1072
v 272 240 1072
v 272 16 416
v 272 16 1072
v 272 240 1072
v 272 240 416
v 304 240 1072
v 304 16 1072
v 304 16 416
v 304 240 416
v -176 144 432
v -176 144 528
v -176 176 528
v -176 176 432
v -16 176 528
v -16 144 528
v -16 144 432
v -16 176 432
v -160 16 736
v -160 16 848
v -160 208 848
v -160 208 736
v 16 208 848
v 16 16 848
v 16 16 736
v 16 208 736
v -304 304 -96
v -304 304 416
v -304 320 416
v -304 320 -96
v -288 320 416
v -288 304 416
v -141.71428571428567 304 -96
v -141.71428571428987 320 -96
v -112 304 -112
v -258.28571428571377 304 400
v -258.28571428571377 320 400
v -112 320 -112
v -96 320 400
v -96 304 400
v -96 304 -112
v -96 320 -112
v -64 304 -112
v -64 304 400
v -64 320 400
v -64 320 -112
v -48 320 400
v -48 304 400
v 98.28571428571428 304 -112
v 98.28571428571013 320 -112
v 128 304 -112
v -18.285714285713766 304 400
v -18.285714285713766 320 400
v 128 320 -112
v 144 320 400
v 144 304 400
v 144 304 -112
v 144 320 -112
v -352 304 -112
v -498.28571428571377 304 400
v -498.28571428571377 320 400
v -352 320 -112
v -336 320 400
v -336 304 400
v -336 304 -112
v -336 320 -112

# texture coordinates
vt -0.875 -0.125
vt 3.125 -0.125
vt 3.125 0.125
vt -0.875 0.125
vt 1.125 0.125
vt -3.375 0.125
vt -3.375 -0.125
vt 1.125 -0.125
vt -1.125 -3.125
vt 3.375 -3.125
vt 3.375 0.875
vt -1.125 0.875
vt 1.125 0.875
vt -3.375 0.875
vt -3.375 -3.125
vt 1.125 -3.125
vt -1.125 -0.125
vt 3.375 -0.125
vt 3.375 0.125
vt -1.125 0.125
vt 0.875 0.125
vt -3.125 0.125
vt -3.125 -0.125
vt 0.875 -0.125
vt -0.5 -0.125
vt -0.125 -0.125
vt 0.125 0.5
vt -0.5 0.5
vt 0.25 0.45689654
vt -0.5 0.45689654
vt -0.625 -0.16810346
vt 0.5 -0.16810346
vt -0.5 0.125
vt 0.625 0.125
vt 0.625 0.5
vt 0.25 0.5
vt 0.25 -0.125
vt 0.625 -0.125
vt 0.5 0.5
vt -0.25 0.5
vt -0.125 0.5
vt 0.125 -0.125
vt 0.5 -0.125
vt 1.625 0.875
vt 2.5 0.875
vt 2.5 1.5
vt 1.625 1.25
vt 0.25 1.5
vt -1.125 1.5
vt 0.25 0.875
vt -0.25 -2.5
vt 1.125 -2.5
vt 1.125 -1.625
vt -0.25 -1.625
vt 0.25 -1.625
vt -1.125 -1.625
vt -1.125 -2.5
vt 0.25 -2.5
vt -0.25 0.875
vt 1.125 1.25
vt -0.25 1.25
vt -1.625 1.25
vt -2.5 1.5
vt -2.5 0.875
vt -1.625 0.875
vt -0.75 0.625
vt -0.125 0.625
vt -0.125 1.625
vt -0.75 1.625
vt -3 1.625
vt -3.5 1.625
vt -3.5 0.625
vt -3 0.625
vt 3 0.125
vt 3.5 0.125
vt 3.5 0.75
vt 3 0.75
vt -3 0.75
vt -3.5 0.75
vt -3.5 0.125
vt -3 0.125
vt 3 0.625
vt 3.5 0.625
vt 3.5 1.625
vt 3 1.625
vt 0.75 1.625
vt 0.125 1.625
vt 0.125 0.625
vt 0.75 0.625
vt 2.25 0.625
vt 2.875 0.625
vt 2.875 0.75
vt 2.25 0.75
vt -2.375 0.75
vt -2.375 0.625
vt 2.375 -2.875
vt 3.5 -2.875
vt 3.5 -2.25
vt 2.375 -2.25
vt -2.375 -2.25
vt -3.5 -2.25
vt -3.5 -2.875
vt -2.375 -2.875
vt 2.375 0.625
vt 2.375 0.75
vt -2.25 0.75
vt -2.875 0.75
vt -2.875 0.625
vt -2.25 0.625
vt 1.25 -0.375
vt 1.875 -0.375
vt 1.875 -0
vt 1.25 0.125
vt -2.375 -0
vt -3 -0
vt -3 -0.375
vt -2.375 -0.375
vt -2.375 -1.25
vt -3 -1.25
vt -3 -1.875
vt -2.375 -1.875
vt 2.375 -1.875
vt 3 -1.875
vt 3 -1.25
vt 2.375 -1.25
vt 2.375 -0.375
vt 3 -0.375
vt 2.375 0.125
vt -1.875 -0
vt -1.875 -0.375
vt -1.25 -0.375
vt -1.25 0.125
vt 0.25 -0.375
vt 0.875 -0.375
vt -0.375 -0.125
vt -0.875 -0.375
vt -0.375 -0.375
vt 0.375 -0.875
vt 0.875 -0.875
vt 0.875 -0.25
vt 0.375 -0.25
vt -0.375 -0.25
vt -0.875 -0.25
vt -0.875 -0.875
vt -0.375 -0.875
vt 0.375 -0.375
vt 0.375 -0.125
vt -0.25 -0.125
vt -0.25 -0.375
vt -0.75 0.1875
vt -0.75 -0
vt -0.125 -0
vt -0.125 0.1875
vt -1.5 0.1875
vt -1.5 -0
vt -0.375 -0
vt 0.375 0.125
vt 1.5 0.125
vt 1.5 0.75
vt 0.375 0.75
vt 0.375 -0
vt 1.5 -0
vt 1.5 0.1875
vt -1.5 0.75
vt -1.5 0.125
vt -0.375 0.125
vt -0.375 0.75
vt -0.75 0.20833331
vt -0.75 -0.625
vt -0.125 -0.625
vt -0.125 0.20833331
vt -1.625 0.20833331
vt -1.625 -0.625
vt -1.5 -0.625
vt 1.625 0.125
vt 1.625 0.75
vt 1.5 -0.625
vt 1.625 -0.625
vt 1.625 0.20833331
vt -1.625 0.75
vt -1.625 0.125
vt 3.625 -0.125
vt 3.625 2.25
vt 3.375 2.25
vt 2.125 2.25
vt -2.125 2.25
vt -2.125 -0.125
vt 2.125 -0.125
vt -2.125 -3.625
vt 2.125 -3.625
vt 2.125 -3.375
vt -2.125 -3.375
vt -3.375 2.25
vt -3.625 2.25
vt -3.625 -0.125
vt 1.75 -0.0625
vt 4.25 -0.0625
vt 4.25 0.0625
vt 1.75 0.0625
vt 0.75 0.0625
vt -2.375 0.0625
vt -2.375 -0.0625
vt 0.75 -0.0625
vt -0.75 -4.25
vt 2.375 -4.25
vt 2.375 -1.75
vt -0.75 -1.75
vt 0.75 -1.75
vt -2.375 -1.75
vt -2.375 -4.25
vt 0.75 -4.25
vt -0.75 -0.0625
vt 2.375 -0.0625
vt 2.375 0.0625
vt -0.75 0.0625
vt -1.75 0.0625
vt -4.25 0.0625
vt -4.25 -0.0625
vt -1.75 -0.0625
vt 3.625 1
vt 3.375 1
vt -2.125 1
vt -3.25 1
vt -3.25 -0.125
vt 3.25 -3.625
vt 3.25 -3.375
vt -3.25 -3.375
vt -3.25 -3.625
vt 3.25 -0.125
vt 3.25 1
vt 2.125 1
vt 3.375 -0.25
vt 3.625 -0.25
vt -3.25 2.25
vt -4.125 2.25
vt -4.125 -0.25
vt -3.25 -0.25
vt 4.125 -3.625
vt 4.125 -3.375
vt -4.125 -3.375
vt -4.125 -3.625
vt 3.25 -0.25
vt 4.125 -0.25
vt 4.125 2.25
vt 3.25 2.25
vt 3.125 2.25
vt -0.875 2.25
vt 3.125 3.375
vt 3.125 3.625
vt -0.875 3.625
vt -0.875 3.375
vt 0.875 3.375
vt 0.875 3.625
vt -3.125 3.625
vt -3.125 3.375
vt 0.875 2.25
vt -3.125 2.25
vt -1 -0.125
vt 3 -0.125
vt 3 2.25
vt -1 2.25
vt 0.625 2.25
vt 0.375 2.25
vt 3 -0.625
vt -1 -0.375
vt -1 -0.625
vt 1 -0.625
vt 1 -0.375
vt -3 -0.625
vt -0.625 -0.125
vt -0.375 2.25
vt -0.625 2.25
vt 1 2.25
vt -3 2.25
vt -3 -0.125
vt 1 -0.125
vt -3.5 2.25
vt -3.5 -0.125
vt -3.5 -0.375
vt -3.5 -0.625
vt 3.5 -0.625
vt 3.5 -0.375
vt 3.5 -0.125
vt 3.5 2.25
vt -0.125 0.75
vt -0.75 0.75
vt 0.75 0.75
vt 0.125 0.75
vt 8.25 -0.125
vt 8.25 1.625
vt 3.125 1.625
vt -4.375 1.625
vt -4.625 1.625
vt -4.625 -0.125
vt -4.375 -0.125
vt 8.25 4.375
vt 8.25 4.625
vt 3.125 4.625
vt 3.125 4.375
vt -3.125 4.375
vt -3.125 4.625
vt -8.25 4.625
vt -8.25 4.375
vt 4.375 -0.125
vt 4.625 -0.125
vt 4.625 1.625
vt 4.375 1.625
vt -3.125 1.625
vt -8.25 1.625
vt -8.25 -0.125
vt 3.5 0.875
vt 4.375 0.875
vt 4.375 1.5
vt 3.5 1.5
vt -1.875 1.5
vt -3.25 1.5
vt -3.25 0.875
vt -1.875 0.875
vt -1.875 4.375
vt -3.25 4.375
vt -3.25 3.5
vt -1.875 3.5
vt 1.875 3.5
vt 3.25 3.5
vt 3.25 4.375
vt 1.875 4.375
vt 1.875 0.875
vt 3.25 0.875
vt 3.25 1.5
vt 1.875 1.5
vt -3.5 1.5
vt -4.375 1.5
vt -4.375 0.875
vt -3.5 0.875
vt 8.375 -0.125
vt 8.625 -0.125
vt 8.625 1.625
vt 8.375 1.625
vt 2.75 1.625
vt 2.75 -0.125
vt 2.75 8.625
vt -3.5 8.625
vt -3.5 8.375
vt 2.75 8.375
vt -2.75 8.375
vt 3.5 8.375
vt 3.5 8.625
vt -2.75 8.625
vt -2.75 -0.125
vt -2.75 1.625
vt -8.375 1.625
vt -8.625 1.625
vt -8.625 -0.125
vt -8.375 -0.125
vt 2.625 1.625
vt 2.375 1.625
vt 2.375 -0.125
vt 2.625 -0.125
vt 8.25 -2.625
vt 8.25 -2.375
vt 3.125 -2.375
vt 3.125 -2.625
vt -3.125 -2.625
vt -3.125 -2.375
vt -8.25 -2.375
vt -8.25 -2.625
vt -2.625 -0.125
vt -2.375 -0.125
vt -2.375 1.625
vt -2.625 1.625
vt 2.875 0.5
vt 3.625 0.5
vt 3.625 0.75
vt -0.625 0.75
vt -1.875 0.75
vt -1.875 0.5
vt -0.625 0.5
vt 0.625 -3.625
vt 1.875 -3.625
vt 1.875 -2.875
vt 0.625 -2.875
vt -0.625 -2.875
vt -1.875 -2.875
vt -1.875 -3.625
vt -0.625 -3.625
vt 1.875 0.5
vt 1.875 0.75
vt 0.625 0.75
vt -3.625 0.75
vt -3.625 0.5
vt -2.875 0.5
vt 5.5 0.875
vt 6.375 0.875
vt 6.375 2.375
vt 5.5 2.375
vt 0.125 2.375
vt -1.25 2.375
vt -1.25 0.875
vt 0.125 0.875
vt 0.125 6.375
vt -1.25 6.375
vt -1.25 5.5
vt 0.125 5.5
vt -0.125 5.5
vt 1.25 5.5
vt 1.25 6.375
vt -0.125 6.375
vt -0.125 0.875
vt 1.25 0.875
vt 1.25 2.375
vt -0.125 2.375
vt -5.5 2.375
vt -6.375 2.375
vt -6.375 0.875
vt -5.5 0.875
vt -0.875 1.875
vt 3.125 1.875
vt 3.125 2
vt -0.875 2
vt -2.25 2
vt -2.375 2
vt -2.375 1.875
vt -2.25 1.875
vt 2.25 -3.125
vt 2.375 -3.125
vt 2.375 0.875
vt 1.1071428 0.875
vt -1.1071428 0.875
vt -2.375 0.875
vt -2.375 -3.125
vt -2.25 -3.125
vt 1.1071428 1.875
vt 2.375 1.875
vt 2.375 2
vt 1.1071428 2
vt 0.26245677 2
vt -3.897606 2
vt -3.897606 1.875
vt 0.26245677 1.875
vt -0.89760596 1.875
vt 3.262457 1.875
vt 3.262457 2
vt -0.89760596 2
vt -0.625 2
vt -1.8928571 2
vt -1.8928571 1.875
vt -0.625 1.875
vt -0.625 2.875
vt -1.8928571 2.875
vt -0.75 -1.125
vt -0.625 -1.125
vt 0.625 -1.125
vt 0.75 -1.125
vt 1.8928571 2.875
vt 0.625 2.875
vt 0.625 1.875
vt 0.75 1.875
vt 0.75 2
vt 0.625 2
vt 1.125 2
vt -2.875 2
vt -2.875 1.875
vt 1.125 1.875
vt -0.25 2
vt -0.375 2
vt -0.375 1.875
vt -0.25 1.875
vt 0.25 -3.125
vt 0.375 -3.125
vt 0.375 0.875
vt -0.89285713 0.875
vt 0.89285713 0.875
vt -0.375 0.875
vt -0.375 -3.125
vt -0.25 -3.125
vt -0.89285713 1.875
vt 0.375 1.875
vt 0.375 2
vt -0.89285713 2
vt 1.2624568 2
vt -2.8976061 2
vt -2.8976061 1.875
vt 1.2624568 1.875
vt -1.8976059 1.875
vt 2.262457 1.875
vt 2.262457 2
vt -1.8976059 2
vt 1.375 2
vt 0.10714282 2
vt 0.10714282 1.875
vt 1.375 1.875
vt 1.375 2.875
vt 0.10714285 2.875
vt 1.25 -1.125
vt 1.375 -1.125
vt -1.375 -1.125
vt -1.25 -1.125
vt -0.10714285 2.875
vt -1.375 2.875
vt -1.375 1.875
vt -1.25 1.875
vt -1.25 2
vt -1.375 2
vt -0.897606 1.875
vt -0.897606 2
vt -2.625 2
vt -3.892857 2
vt -3.892857 1.875
vt -2.625 1.875
vt -2.625 2.875
vt -3.892857 2.875
vt -2.75 -1.125
vt -2.625 -1.125
vt 2.625 -1.125
vt 2.75 -1.125
vt 3.892857 2.875
vt 2.625 2.875
vt 2.625 1.875
vt 2.75 1.875
vt 2.75 2
vt 2.625 2

# normals
vn -1 0 -0
vn 0 0 1
vn 0 -1 -0
vn 0 1 -0
vn 0 0 -1
vn 1 0 -0
vn -0.9805806756909201 0.19611613513818402 -0
vn 0 -0.3713906763541037 0.9284766908852593
vn 0.9284766908852594 0.3713906763541038 -0
vn -0 0.9615239476408233 -0.27472112789737807
vn 0 0.9805806756909201 0.19611613513818404
vn 0.1643989873053573 0.9863939238321437 -0
vn 0.9615239476408232 0 0.27472112789737807
vn -0.9615239476408232 0 -0.27472112789737807

o entity0_brush0
usemtl __TB_empty
f  1/1/1  2/2/1  3/3/1  4/4/1
usemtl __TB_empty
f  5/5/2  3/6/2  2/7/2  6/8/2
usemtl __TB_empty
f  6/9/3  2/10/3  1/11/3  7/12/3
usemtl High Res/PBR Grass
f  8/13/4  4/14/4  3/15/4  5/16/4
usemtl __TB_empty
f  7/17/5  1/18/5  4/19/5  8/20/5
usemtl __TB_empty
f  8/21/6  5/22/6  6/23/6  7/24/6

o entity0_brush1
usemtl High Res/PBR Black Graffiti Wall
f  9/25/7  10/26/7  11/27/7  12/28/7
usemtl High Res/PBR Black Graffiti Wall
f  13/29/8  11/30/8  10/31/8  14/32/8
usemtl High Res/PBR Black Graffiti Wall
f  14/33/3  10/34/3  9/35/3  15/28/3
usemtl High Res/PBR Black Graffiti Wall
f  16/36/4  12/28/4  11/25/4  13/37/4
usemtl High Res/PBR Black Graffiti Wall
f  15/25/5  9/38/5  12/39/5  16/40/5
usemtl High Res/PBR Black Graffiti Wall
f  16/39/9  13/41/9  14/42/9  15/43/9

o entity0_brush2
usemtl High Res/PBR Black Graffiti Wall
f  17/44/1  18/45/1  19/46/1  20/47/1
usemtl High Res/PBR Black Graffiti Wall
f  21/48/2  19/49/2  18/12/2  22/50/2
usemtl High Res/PBR Black Graffiti Wall
f  22/51/3  18/52/3  17/53/3  23/54/3
usemtl High Res/PBR Black Graffiti Wall
f  24/55/10  20/56/10  19/57/10  21/58/10
usemtl High Res/PBR Black Graffiti Wall
f  23/59/5  17/13/5  20/60/5  24/61/5
usemtl High Res/PBR Black Graffiti Wall
f  24/62/6  21/63/6  22/64/6  23/65/6

o entity0_brush3
usemtl High Res/PBR Black Graffiti Wall
f  25/66/1  26/67/1  27/68/1  28/69/1
usemtl High Res/PBR Black Graffiti Wall
f  29/70/2  27/71/2  26/72/2  30/73/2
usemtl High Res/PBR Black Graffiti Wall
f  30/74/3  26/75/3  25/76/3  31/77/3
usemtl High Res/PBR Black Graffiti Wall
f  32/78/4  28/79/4  27/80/4  29/81/4
usemtl High Res/PBR Black Graffiti Wall
f  31/82/5  25/83/5  28/84/5  32/85/5
usemtl High Res/PBR Black Graffiti Wall
f  32/86/6  29/87/6  30/88/6  31/89/6

o entity0_brush4
usemtl High Res/PBR Black Graffiti Wall
f  33/90/1  34/91/1  35/92/1  36/93/1
usemtl High Res/PBR Black Graffiti Wall
f  37/94/2  35/79/2  34/72/2  38/95/2
usemtl High Res/PBR Black Graffiti Wall
f  38/96/3  34/97/3  33/98/3  39/99/3
usemtl High Res/PBR Black Graffiti Wall
f  40/100/4  36/101/4  35/102/4  37/103/4
usemtl High Res/PBR Black Graffiti Wall
f  39/104/5  33/83/5  36/76/5  40/105/5
usemtl High Res/PBR Black Graffiti Wall
f  40/106/6  37/107/6  38/108/6  39/109/6

o entity0_brush5
usemtl Pixel/PBR JungleWall
f  41/110/1  42/111/1  43/112/1  44/113/1
usemtl Pixel/PBR JungleWall
f  45/114/2  43/115/2  42/116/2  46/117/2
usemtl Pixel/PBR JungleWall
f  47/118/11  44/119/11  43/120/11  45/121/11
usemtl Pixel/PBR JungleWall
f  46/122/3  42/123/3  41/124/3  48/125/3
usemtl Pixel/PBR JungleWall
f  48/126/5  41/127/5  44/74/5  47/128/5
usemtl Pixel/PBR JungleWall
f  45/129/6  46/130/6  48/131/6  47/132/6

o entity0_brush6
usemtl Pixel/PBR JungleWall
f  49/133/1  50/134/1  51/24/1  52/37/1
usemtl Pixel/PBR JungleWall
f  53/135/2  51/1/2  50/136/2  54/137/2
usemtl Pixel/PBR JungleWall
f  54/138/3  50/139/3  49/140/3  55/141/3
usemtl Pixel/PBR JungleWall
f  56/142/4  52/143/4  51/144/4  53/145/4
usemtl Pixel/PBR JungleWall
f  55/146/5  49/134/5  52/24/5  56/147/5
usemtl Pixel/PBR JungleWall
f  56/148/6  53/1/6  54/136/6  55/149/6

o entity0_brush7
usemtl High Res/PBR Black Graffiti Wall
f  57/150/1  58/151/1  59/152/1  60/153/1
usemtl High Res/PBR Black Graffiti Wall
f  60/154/2  59/155/2  61/156/2
usemtl High Res/PBR Black Graffiti Wall
f  61/157/3  59/158/3  58/159/3  62/160/3
usemtl High Res/PBR Black Graffiti Wall
f  62/161/5  58/162/5  57/163/5
usemtl High Res/PBR Black Graffiti Wall
f  57/164/12  60/165/12  61/166/12  62/167/12

o entity0_brush8
usemtl High Res/PBR Black Graffiti Wall
f  63/168/1  64/169/1  65/170/1  66/171/1
usemtl High Res/PBR Black Graffiti Wall
f  67/154/2  66/172/2  65/173/2  68/174/2
usemtl High Res/PBR Black Graffiti Wall
f  68/158/3  65/175/3  64/176/3  69/159/3
usemtl High Res/PBR Black Graffiti Wall
f  69/177/5  64/178/5  63/179/5  70/163/5
usemtl High Res/PBR Black Graffiti Wall
f  70/164/12  63/180/12  66/181/12  67/165/12
usemtl High Res/PBR Black Graffiti Wall
f  69/169/6  70/150/6  67/153/6  68/170/6

o entity0_brush9
usemtl Pixel/PBR Wood
f  71/18/1  72/182/1  73/183/1  74/184/1
usemtl Pixel/PBR Wood
f  75/185/2  73/186/2  72/187/2  76/188/2
usemtl Pixel/PBR Wood
f  76/189/3  72/190/3  71/191/3  77/192/3
usemtl Pixel/PBR Wood
f  78/191/4  74/192/4  73/189/4  75/190/4
usemtl Pixel/PBR Wood
f  77/187/5  71/188/5  74/185/5  78/186/5
usemtl Pixel/PBR Wood
f  78/193/6  75/194/6  76/195/6  77/7/6

o entity0_brush10
usemtl Pixel/PBR Shrub
f  79/196/1  80/197/1  81/198/1  82/199/1
usemtl Pixel/PBR Shrub
f  83/200/2  81/201/2  80/202/2  84/203/2
usemtl Pixel/PBR Shrub
f  84/204/3  80/205/3  79/206/3  85/207/3
usemtl Pixel/PBR Shrub
f  86/208/4  82/209/4  81/210/4  83/211/4
usemtl Pixel/PBR Shrub
f  85/212/5  79/213/5  82/214/5  86/215/5
usemtl Pixel/PBR Shrub
f  86/216/6  83/217/6  84/218/6  85/219/6

o entity0_brush11
usemtl Pixel/PBR Wood
f  87/18/1  88/182/1  89/220/1  90/221/1
usemtl Pixel/PBR Wood
f  91/222/2  89/223/2  88/224/2  92/187/2
usemtl Pixel/PBR Wood
f  92/190/3  88/225/3  87/226/3  93/191/3
usemtl Pixel/PBR Wood
f  94/192/4  90/227/4  89/228/4  91/189/4
usemtl Pixel/PBR Wood
f  93/188/5  87/229/5  90/230/5  94/231/5
usemtl Pixel/PBR Wood
f  94/221/6  91/220/6  92/182/6  93/18/6

o entity0_brush12
usemtl Pixel/PBR Wood
f  95/232/1  96/233/1  97/183/1  98/184/1
usemtl Pixel/PBR Wood
f  99/234/2  97/235/2  96/236/2  100/237/2
usemtl Pixel/PBR Wood
f  100/225/3  96/238/3  95/239/3  101/226/3
usemtl Pixel/PBR Wood
f  102/227/4  98/240/4  97/241/4  99/228/4
usemtl Pixel/PBR Wood
f  101/242/5  95/243/5  98/244/5  102/245/5
usemtl Pixel/PBR Wood
f  102/184/6  99/183/6  100/233/6  101/232/6

o entity0_brush13
usemtl Pixel/PBR Wood
f  103/1/1  104/2/1  105/246/1  106/247/1
usemtl Pixel/PBR Wood
f  107/193/2  105/194/2  104/195/2  108/7/2
usemtl Pixel/PBR Wood
f  108/248/3  104/249/3  103/250/3  109/251/3
usemtl Pixel/PBR Wood
f  110/252/4  106/253/4  105/254/4  107/255/4
usemtl Pixel/PBR Wood
f  109/18/5  103/182/5  106/183/5  110/184/5
usemtl Pixel/PBR Wood
f  110/256/6  107/257/6  108/23/6  109/24/6

o entity0_brush14
usemtl Pixel/PBR Wood
f  111/258/1  112/259/1  113/260/1  114/261/1
usemtl Pixel/PBR Wood
f  115/262/2  113/263/2  112/147/2  116/38/2
usemtl Pixel/PBR Wood
f  116/264/3  112/127/3  111/265/3  117/266/3
usemtl Pixel/PBR Wood
f  118/267/4  114/268/4  113/116/4  115/269/4
usemtl Pixel/PBR Wood
f  117/270/5  111/135/5  114/271/5  118/272/5
usemtl Pixel/PBR Wood
f  118/273/6  115/274/6  116/275/6  117/276/6

o entity0_brush15
usemtl Pixel/PBR Wood
f  119/270/1  120/135/1  121/271/1  122/272/1
usemtl Pixel/PBR Wood
f  123/273/2  121/277/2  120/278/2  124/276/2
usemtl Pixel/PBR Wood
f  124/268/3  120/279/3  119/280/3  125/267/3
usemtl Pixel/PBR Wood
f  126/266/4  122/281/4  121/282/4  123/265/4
usemtl Pixel/PBR Wood
f  125/258/5  119/283/5  122/284/5  126/261/5
usemtl Pixel/PBR Wood
f  126/262/6  123/263/6  124/147/6  125/38/6

o entity0_brush16
usemtl High Res/PBR Black Graffiti Wall
f  127/66/1  128/67/1  129/285/1  130/286/1
usemtl High Res/PBR Black Graffiti Wall
f  131/78/2  129/79/2  128/72/2  132/73/2
usemtl High Res/PBR Black Graffiti Wall
f  132/74/3  128/75/3  127/76/3  133/77/3
usemtl High Res/PBR Black Graffiti Wall
f  134/78/4  130/79/4  129/80/4  131/81/4
usemtl High Res/PBR Black Graffiti Wall
f  133/82/5  127/83/5  130/76/5  134/77/5
usemtl High Res/PBR Black Graffiti Wall
f  134/287/6  131/288/6  132/88/6  133/89/6

o entity0_brush17
usemtl Pixel/PBR Wood
f  135/2/1  136/289/1  137/290/1  138/291/1
usemtl Pixel/PBR Wood
f  139/292/2  137/293/2  136/294/2  140/295/2
usemtl Pixel/PBR Wood
f  140/296/3  136/297/3  135/298/3  141/299/3
usemtl Pixel/PBR Wood
f  142/300/4  138/301/4  137/302/4  139/303/4
usemtl Pixel/PBR Wood
f  141/304/5  135/305/5  138/306/5  142/307/5
usemtl Pixel/PBR Wood
f  142/308/6  139/309/6  140/310/6  141/23/6

o entity0_brush18
usemtl Pixel/PBR_BeachWall
f  143/311/1  144/312/1  145/313/1  146/314/1
usemtl Pixel/PBR_BeachWall
f  147/315/2  145/316/2  144/317/2  148/318/2
usemtl Pixel/PBR_BeachWall
f  148/319/3  144/320/3  143/321/3  149/322/3
usemtl Pixel/PBR_BeachWall
f  150/323/4  146/324/4  145/325/4  147/326/4
usemtl Pixel/PBR_BeachWall
f  149/327/5  143/328/5  146/329/5  150/330/5
usemtl Pixel/PBR_BeachWall
f  150/331/6  147/332/6  148/333/6  149/334/6

o entity0_brush19
usemtl Pixel/PBR Wood
f  151/335/1  152/336/1  153/337/1  154/338/1
usemtl Pixel/PBR Wood
f  155/339/2  153/71/2  152/278/2  156/340/2
usemtl Pixel/PBR Wood
f  156/341/3  152/342/3  151/343/3  157/344/3
usemtl Pixel/PBR Wood
f  158/345/4  154/346/4  153/347/4  155/348/4
usemtl Pixel/PBR Wood
f  157/349/5  151/283/5  154/84/5  158/350/5
usemtl Pixel/PBR Wood
f  158/351/6  155/352/6  156/353/6  157/354/6

o entity0_brush20
usemtl Pixel/PBR Wood
f  159/2/1  160/289/1  161/290/1  162/291/1
usemtl Pixel/PBR Wood
f  163/355/2  161/356/2  160/357/2  164/358/2
usemtl Pixel/PBR Wood
f  164/359/3  160/360/3  159/361/3  165/362/3
usemtl Pixel/PBR Wood
f  166/363/4  162/364/4  161/365/4  163/366/4
usemtl Pixel/PBR Wood
f  165/367/5  159/368/5  162/369/5  166/370/5
usemtl Pixel/PBR Wood
f  166/308/6  163/309/6  164/310/6  165/23/6

o entity0_brush21
usemtl High Res/PBR Black Graffiti Wall
f  167/371/1  168/372/1  169/373/1  170/92/1
usemtl High Res/PBR Black Graffiti Wall
f  171/374/2  169/375/2  168/376/2  172/377/2
usemtl High Res/PBR Black Graffiti Wall
f  172/378/3  168/379/3  167/380/3  173/381/3
usemtl High Res/PBR Black Graffiti Wall
f  174/382/4  170/383/4  169/384/4  171/385/4
usemtl High Res/PBR Black Graffiti Wall
f  173/35/5  167/386/5  170/387/5  174/388/5
usemtl High Res/PBR Black Graffiti Wall
f  174/107/6  171/389/6  172/390/6  173/391/6

o entity0_brush22
usemtl Pixel/PBR_BeachWall
f  175/392/1  176/393/1  177/394/1  178/395/1
usemtl Pixel/PBR_BeachWall
f  179/396/2  177/397/2  176/398/2  180/399/2
usemtl Pixel/PBR_BeachWall
f  180/400/3  176/401/3  175/402/3  181/403/3
usemtl Pixel/PBR_BeachWall
f  182/404/4  178/405/4  177/406/4  179/407/4
usemtl Pixel/PBR_BeachWall
f  181/408/5  175/409/5  178/410/5  182/411/5
usemtl Pixel/PBR_BeachWall
f  182/412/6  179/413/6  180/414/6  181/415/6

o entity0_brush23
usemtl Pixel/PBR_Balloon
f  183/416/1  184/417/1  185/418/1  186/419/1
usemtl Pixel/PBR_Balloon
f  187/420/2  185/421/2  184/422/2  188/423/2
usemtl Pixel/PBR_Balloon
f  188/424/3  184/425/3  183/426/3  189/427/3
usemtl Pixel/PBR_Balloon
f  190/428/4  186/429/4  185/430/4  187/431/4
usemtl Pixel/PBR_Balloon
f  189/432/5  183/433/5  186/434/5  190/435/5
usemtl Pixel/PBR_Balloon
f  190/436/13  187/437/13  188/438/13  189/439/13

o entity0_brush24
usemtl Pixel/PBR_Balloon
f  191/440/14  192/441/14  193/442/14  194/443/14
usemtl Pixel/PBR_Balloon
f  195/444/2  193/445/2  192/446/2  196/447/2
usemtl Pixel/PBR_Balloon
f  196/448/3  192/449/3  191/450/3  197/451/3
usemtl Pixel/PBR_Balloon
f  198/452/4  194/453/4  193/454/4  195/455/4
usemtl Pixel/PBR_Balloon
f  197/456/5  191/457/5  194/458/5  198/459/5
usemtl Pixel/PBR_Balloon
f  198/460/6  195/461/6  196/462/6  197/463/6

o entity0_brush25
usemtl Pixel/PBR_Balloon
f  199/416/1  200/417/1  201/418/1  202/419/1
usemtl Pixel/PBR_Balloon
f  203/464/2  201/465/2  200/466/2  204/467/2
usemtl Pixel/PBR_Balloon
f  204/468/3  200/469/3  199/470/3  205/471/3
usemtl Pixel/PBR_Balloon
f  206/472/4  202/473/4  201/474/4  203/475/4
usemtl Pixel/PBR_Balloon
f  205/476/5  199/477/5  202/478/5  206/479/5
usemtl Pixel/PBR_Balloon
f  206/480/13  203/481/13  204/482/13  205/483/13

o entity0_brush26
usemtl Pixel/PBR_Balloon
f  207/484/14  208/485/14  209/486/14  210/487/14
usemtl Pixel/PBR_Balloon
f  211/488/2  209/489/2  208/490/2  212/491/2
usemtl Pixel/PBR_Balloon
f  212/492/3  208/493/3  207/494/3  213/495/3
usemtl Pixel/PBR_Balloon
f  214/496/4  210/497/4  209/498/4  211/499/4
usemtl Pixel/PBR_Balloon
f  213/500/5  207/501/5  210/502/5  214/503/5
usemtl Pixel/PBR_Balloon
f  214/460/6  211/461/6  212/462/6  213/463/6

o entity0_brush27
usemtl Pixel/PBR_Balloon
f  215/504/14  216/441/14  217/442/14  218/505/14
usemtl Pixel/PBR_Balloon
f  219/506/2  217/507/2  216/508/2  220/509/2
usemtl Pixel/PBR_Balloon
f  220/510/3  216/511/3  215/512/3  221/513/3
usemtl Pixel/PBR_Balloon
f  222/514/4  218/515/4  217/516/4  219/517/4
usemtl Pixel/PBR_Balloon
f  221/518/5  215/519/5  218/520/5  222/521/5
usemtl Pixel/PBR_Balloon
f  222/460/6  219/461/6  220/462/6  221/463/6

